<?xml version="1.0" encoding="utf-8"?>
<!-- Generator: Adobe Illustrator 21.0.2, SVG Export Plug-In . SVG Version: 6.00 Build 0)  -->
<svg version="1.1" id="Layer_1" xmlns="http://www.w3.org/2000/svg" xmlns:xlink="http://www.w3.org/1999/xlink" x="0px" y="0px"
	 width="308px" height="309.2px" viewBox="0 0 308 309.2" style="enable-background:new 0 0 308 309.2;" xml:space="preserve">
<style type="text/css">
	.st0{fill:#525252;}
</style>
<rect x="14" y="14.6" class="st0" width="280" height="280"/>
<g>
	<g>
		<path d="M156.5,248.1c-23.9-0.5-45.2-6-63.6-20.4c-16.7-13-20.4-24.6-14.3-44.7c4-13,1.3-27,6.3-39.6c3.1-7.8,1.4-12.6-4.6-18.9
			c-14.7-15.4-16.1-35.1-13.5-55.3c0.7-5.1,3.9-4.1,7.3-3.2c19,4.8,34.6,14.5,45.2,31.3c2.7,4.3,5,5.4,10,3.9
			c17.5-5.3,35.3-5.3,52.9,0c4.7,1.4,7.2,1.1,9.9-3.7c10.2-18.3,27.7-26.3,46.6-32c4.6-1.4,6.1,1.3,6.5,4.9c1.9,21.5,0,42-17.2,57.7
			c-3.3,3-4.5,5.3-2.8,9.7c3.5,8.9,5,18.4,5.1,28c0.1,6.6,1.6,13,3.6,19.3c4.9,14.9,1.3,27.6-10.2,38.2
			C204.6,241.1,181.1,247.4,156.5,248.1z M211.4,118.4c8.5,7.5,10.3,0.2,13.6-3.8c4.2-5.2,3.2-10.5,1.4-16.1
			c-2.1-6.5-3.6-15.3-10.2-16.8c-5.4-1.2-10.4,6.1-14.3,10.9c-3.2,3.9-6.7,8.1-8,12.8c-1.4,4.8,7.1,3.3,7.6,9.5
			c-30.4-16.6-60.7-16.1-91.1-1c8.6-8.5,8.9-11.7,0.7-20.9c-3.3-3.8-7.6-6.7-11.5-10c-2.8-2.4-5.2-1.9-7.6,1.1
			c-5.7,7-8.2,15.3-8.5,24c-0.2,5.7,4.7,9.5,8,13.5c3.2,3.7,4-5.3,8.6-1.3c-15.1,21.5-11.8,47.8-18.2,72.3c5.6-5.8,12.8-7,21.2-7.7
			c-9.3-12.2,1.6-20.6,4.8-30.7c7.5,5.1,15.6,10.5,23.7,16c1.3,0.9,2.5,2.1,1.2,3.6c-5.8,7-8.6,17.9-23,15
			c6.3,6.9,8.6,12.8,7.3,19.7c-1.3,6.7-6.5,10.7-11.3,15.2c32.9,18,73.9,17.6,100.2-0.9c-6.4-3.2-10.3-8.1-11.8-15
			c-1.6-7.1,2.4-12.4,5.9-18.3c-9.6-0.1-16.4-3.7-18.3-13c-0.5-2.4-6.8-2.5-2.5-5.7c8.2-6.1,16.8-11.6,25-17.2
			c2.9,3.3-2.8,4.7,0.7,7.1c9.2,6.4,8.8,15,4.3,25.2c8.1-2.5,13.8,1.3,19.8,5C222.2,166.9,225.7,141.4,211.4,118.4z M119.6,177.8
			c2.6-0.5,5.1-2.2,5.2-5.7c0-4.4-3.6-6.3-7-6.6c-3.5-0.4-5.1,2.9-5,6.1C112.8,175.3,115,177.6,119.6,177.8z M199.2,171.1
			c-0.8-3.1-2.2-6.4-5.7-5.6c-3.2,0.7-7.1,2.4-6.5,7.1c0.5,3.4,2.9,5.2,6.3,5C197.1,177.4,198.9,174.9,199.2,171.1z"/>
		<path d="M139,216c12.5-16.5,21.4-16.5,33.5-0.4c-5.1,0.7-7.7-3.1-10.4-5.6c-4.5-4.4-8-4.3-12.5,0C147,212.5,144.5,215.8,139,216z"
			/>
		<path d="M155.9,197.3c-2.5-0.3-4.8-1.4-5.2-3.9c-0.6-3.5,2.4-3.5,4.7-3.5c2.4,0,6-0.6,5.6,3.4C160.8,195.8,158.4,197,155.9,197.3z
			"/>
	</g>
</g>
</svg>
